<?xml version="1.0" encoding="iso-8859-1"?>
<!-- Generator: Adobe Illustrator 19.0.0, SVG Export Plug-In . SVG Version: 6.00 Build 0)  -->
<svg version="1.1" id="Capa_1" xmlns="http://www.w3.org/2000/svg" xmlns:xlink="http://www.w3.org/1999/xlink" x="0px" y="0px"
	 viewBox="0 0 512 512" style="enable-background:new 0 0 512 512;" xml:space="preserve">
<circle style="fill:#28384C;" cx="256" cy="256" r="256"/>
<circle style="fill:#3B4E63;" cx="256" cy="256" r="79.448"/>
<circle style="fill:#FFFFFF;" cx="256" cy="256" r="35.31"/>
<g>
	<path style="fill:#3B4E63;" d="M467.862,264.828c-4.873,0-8.828-3.946-8.828-8.819c-0.035-37.632-11.758-75.661-33.898-109.983
		c-2.639-4.096-1.465-9.56,2.631-12.2s9.56-1.457,12.2,2.631c23.985,37.173,36.679,78.513,36.723,119.534
		C476.69,260.864,472.744,264.828,467.862,264.828C467.871,264.828,467.862,264.828,467.862,264.828z"/>
	<path style="fill:#3B4E63;" d="M361.922,79.448c-1.448,0-2.913-0.353-4.264-1.103c-28.999-16.049-66.057-25.3-101.676-25.379
		c-4.873-0.009-8.819-3.972-8.81-8.845s3.964-8.81,8.828-8.81c0.009,0,0.009,0,0.018,0c38.506,0.079,78.663,10.134,110.186,27.586
		c4.264,2.366,5.809,7.733,3.452,11.997C368.04,77.806,365.03,79.448,361.922,79.448z"/>
	<path style="fill:#3B4E63;" d="M256,441.379c-102.215,0-185.379-83.156-185.379-185.379c0-4.873,3.955-8.828,8.828-8.828
		c4.873,0,8.828,3.955,8.828,8.828c0,92.487,75.238,167.724,167.724,167.724c4.873,0,8.828,3.955,8.828,8.828
		S260.873,441.379,256,441.379z"/>
	<path style="fill:#3B4E63;" d="M203.034,132.414c-3.54,0-6.886-2.145-8.236-5.65c-1.757-4.546,0.503-9.657,5.049-11.414
		c15.325-5.923,35.787-9.366,56.126-9.419c4.749,0.035,8.836,3.928,8.854,8.801c0.018,4.873-3.928,8.845-8.801,8.854
		c-18.264,0.053-36.414,3.054-49.805,8.236C205.171,132.228,204.094,132.414,203.034,132.414z"/>
	<path style="fill:#3B4E63;" d="M141.233,185.379c-1.704,0-3.425-0.494-4.943-1.518c-4.034-2.737-5.094-8.218-2.366-12.262
		c11.14-16.455,21.354-26.668,37.685-37.685c4.052-2.737,9.534-1.66,12.253,2.383c2.728,4.043,1.66,9.534-2.383,12.253
		c-14.451,9.746-23.066,18.361-32.936,32.936C146.847,184.02,144.066,185.379,141.233,185.379z"/>
</g>
<g>
</g>
<g>
</g>
<g>
</g>
<g>
</g>
<g>
</g>
<g>
</g>
<g>
</g>
<g>
</g>
<g>
</g>
<g>
</g>
<g>
</g>
<g>
</g>
<g>
</g>
<g>
</g>
<g>
</g>
</svg>
